<svg id="Layer_1" data-name="Layer 1" xmlns="http://www.w3.org/2000/svg" viewBox="0 0 150 150"><defs><style>.cls-1{fill:#fff;opacity:0;}.cls-2{fill:#0c80b5;}</style></defs><title>favicon</title><rect class="cls-1" width="150" height="150"/><polygon class="cls-2" points="27 127.19 99.92 127.19 99.92 113.83 39.99 113.83 27 127.19"/><polygon class="cls-2" points="86.08 40.38 24.5 40.38 11.11 53.73 86.08 53.73 86.08 40.38"/><path class="cls-2" d="M144.89,18.39v0h0l0,0h0c-.56-.64-4.06-2.16-24,15.79l-33-8.06-2.09,2.1,18.6,9.5-3.12,3s-.11,1.13.85,1l3.37-2.43,2,1.3L50.89,85.22,28.11,106.66,43.42,95.27,11,124.18,39.13,102l-6.41,5.69,8.82-7.14-35.9,32,32-25.31L16,126.56l17-13.41L14.3,130.6l25.05-19.81h0l76.5-60.5,0,0L117,53.11l-3,2.86c-.3.92.82,1,.82,1l3.46-2.52,5.57,19.7,2.44-1.68L124.88,39C145.8,23,145.4,19.13,144.89,18.39Z" transform="translate(-0.34 -0.27)"/></svg>